<svg xmlns="http://www.w3.org/2000/svg" viewBox="0 0 690.66 769.33"><defs><style>.cls-1,.cls-5{fill:#9f484b;}.cls-1,.cls-2,.cls-3,.cls-5{stroke:#000;stroke-miterlimit:10;stroke-width:6px;}.cls-2,.cls-4{fill:#fff;}.cls-5{font-size:115px;font-family:MyriadPro-Bold, Myriad Pro;font-weight:700;}.cls-6{letter-spacing:-0.1em;}</style></defs><title>adults</title><g id="Layer_2" data-name="Layer 2"><g id="adults"><circle class="cls-1" cx="314.5" cy="314.5" r="311.5"/><circle class="cls-2" cx="314.5" cy="314.5" r="251.83"/><circle class="cls-3" cx="314.83" cy="249.83" r="85.5"/><path class="cls-3" d="M317.83,566.33A258.48,258.48,0,0,0,479.49,504.7a11.22,11.22,0,0,0,3.93-8.91c-.39-12.85-1.5-89.35-3.09-115.46-2-33-19-37-19-37a452.16,452.16,0,0,0-49-12c-23.88-4.42-56.15-.63-63.3.3a11.39,11.39,0,0,0-2.64.68,86,86,0,0,1-63.42,0,10.46,10.46,0,0,0-2.53-.65c-5.58-.75-12.66-1.46-20.86-1.94-12.81-.74-29-.87-42.5,1.63a452.16,452.16,0,0,0-49,12s-17,4-19,37c-1.58,26.11-2.69,102.61-3.09,115.46a11.26,11.26,0,0,0,3.94,8.91,258.42,258.42,0,0,0,161.65,61.63"/><polygon class="cls-4" points="314.33 336.33 289.33 426.33 313.33 471.33 337.33 427.33 314.33 336.33"/><text class="cls-5" transform="translate(146.72 729.87)">ADU<tspan class="cls-6" x="233.91" y="0">L</tspan><tspan x="280.71" y="0">T</tspan></text></g></g></svg>