<svg xmlns="http://www.w3.org/2000/svg" viewBox="0 0 629 764.33"><defs><style>.cls-1,.cls-4{fill:#89bdff;}.cls-1,.cls-2,.cls-3,.cls-4{stroke:#000;stroke-miterlimit:10;stroke-width:6px;}.cls-2{fill:#fff;}.cls-4{font-size:115px;font-family:MyriadPro-Bold, Myriad Pro;font-weight:700;}</style></defs><title>Asset 13</title><g id="Layer_2" data-name="Layer 2"><g id="children"><circle class="cls-1" cx="314.5" cy="314.5" r="311.5"/><circle class="cls-2" cx="314.5" cy="314.5" r="251.83"/><circle class="cls-3" cx="314.83" cy="295.83" r="85.5"/><path class="cls-3" d="M317.83,566.33a258.4,258.4,0,0,0,165.75-65.2s-1.25-44.8-3.25-77.8-19-37-19-37a452.16,452.16,0,0,0-49-12c-27-5-64.73.5-64.73.5a86.06,86.06,0,0,1-65.78,0c-5.77-.82-13.35-1.61-22.24-2.13-12.81-.74-29-.87-42.5,1.63a452.16,452.16,0,0,0-49,12s-17,4-19,37-3.25,77.8-3.25,77.8a258.4,258.4,0,0,0,165.75,65.2"/><text class="cls-4" transform="translate(42.72 724.87)">CHILDREN</text></g></g></svg>