<svg xmlns="http://www.w3.org/2000/svg" viewBox="0 0 682.66 778.33"><defs><style>.cls-1,.cls-5{fill:#598e5a;}.cls-1,.cls-2,.cls-3,.cls-5{stroke:#000;stroke-miterlimit:10;stroke-width:6px;}.cls-2,.cls-4{fill:#fff;}.cls-5{font-size:115px;font-family:MyriadPro-Bold, Myriad Pro;font-weight:700;}.cls-6{letter-spacing:-0.07em;}.cls-7{letter-spacing:-0.09em;}</style></defs><title>Layer 3</title><g id="Layer_2" data-name="Layer 2"><g id="Layer_3" data-name="Layer 3"><circle class="cls-1" cx="314.5" cy="314.5" r="311.5"/><circle class="cls-2" cx="314.5" cy="314.5" r="251.83"/><circle class="cls-3" cx="457.83" cy="314.83" r="70.5"/><circle class="cls-3" cx="170.83" cy="314.83" r="70.5"/><path class="cls-3" d="M73.33,370.33c23.88-4.42,56.16-.63,63.3.3a11.6,11.6,0,0,1,2.65.68,85.93,85.93,0,0,0,63.41,0,10.66,10.66,0,0,1,2.54-.65c5.58-.75,12.66-1.46,20.86-1.94,12.81-.74,29-.87,42.49,1.63a452.16,452.16,0,0,1,49,12s17,4,19,37c1.59,26.11,2.7,102.61,3.09,115.46a11.22,11.22,0,0,1-3.93,8.91c-5,4.25-10.82,8.88-17.49,13.63a21.09,21.09,0,0,0-2.52-1.41c-.93-.42-1.87-.82-2.8-1.23-7.58-7.19-16.69-9.86-26.93-10.77q-3.54-.31-7.08-.58c-6.49-1.57-13.05-2.85-19.67-3.91-5.63-2.88-11.84-4.21-18.58-4.84q-6.22-.6-12.42-1.36c-14.72-2.23-29.34-5.41-43.3-10.59a165.52,165.52,0,0,1-18-10.7,106.85,106.85,0,0,0-11.81-6.4c-.33-.65-.67-1.29-1-1.93L148,495.7a39.18,39.18,0,0,0-10.81-7.63,41.83,41.83,0,0,0-8.68-5c-2.48-10.21-9.58-19-18.68-24.31a39.13,39.13,0,0,0-9.58-14.15,40.27,40.27,0,0,0-5.42-6.46,36.8,36.8,0,0,0-7.7-16.06,35,35,0,0,0-5.52-17.78,35.69,35.69,0,0,0-5.8-15.7A35.77,35.77,0,0,0,70.16,374c-.34-.95-.7-1.9-1.12-2.83Z"/><path class="cls-3" d="M555.33,370.33c-23.88-4.42-56.15-.63-63.3.3a11.39,11.39,0,0,0-2.64.68,86,86,0,0,1-63.42,0,10.46,10.46,0,0,0-2.53-.65c-5.58-.75-12.66-1.46-20.86-1.94-12.81-.74-29-.87-42.5,1.63a452.16,452.16,0,0,0-49,12s-17,4-19,37c-1.58,26.11-2.69,102.61-3.09,115.46a11.26,11.26,0,0,0,3.94,8.91c5,4.25,10.82,8.88,17.48,13.63a20.45,20.45,0,0,1,2.53-1.41c.93-.42,1.87-.82,2.8-1.23,7.58-7.19,16.69-9.86,26.93-10.77q3.52-.31,7.07-.58c6.5-1.57,13.06-2.85,19.68-3.91,5.63-2.88,11.84-4.21,18.58-4.84q6.22-.6,12.41-1.36c14.72-2.23,29.35-5.41,43.31-10.59a166.48,166.48,0,0,0,18-10.7,106.85,106.85,0,0,1,11.81-6.4c.33-.65.67-1.29,1-1.93q3-4,6.11-7.91a39.18,39.18,0,0,1,10.81-7.63,41.32,41.32,0,0,1,8.68-5c2.47-10.21,9.58-19,18.68-24.31a39.1,39.1,0,0,1,9.57-14.15,40.86,40.86,0,0,1,5.43-6.46,36.8,36.8,0,0,1,7.7-16.06,34.89,34.89,0,0,1,5.52-17.78,35.57,35.57,0,0,1,5.8-15.7A35.75,35.75,0,0,1,558.5,374c.34-.95.71-1.9,1.12-2.83C558.21,370.88,556.78,370.6,555.33,370.33Z"/><path class="cls-3" d="M317.83,566.33A258.48,258.48,0,0,0,479.49,504.7a11.22,11.22,0,0,0,3.93-8.91c-.39-12.85-1.5-89.35-3.09-115.46-2-33-19-37-19-37a452.16,452.16,0,0,0-49-12c-23.88-4.42-56.15-.63-63.3.3a11.39,11.39,0,0,0-2.64.68,86,86,0,0,1-63.42,0,10.46,10.46,0,0,0-2.53-.65c-5.58-.75-12.66-1.46-20.86-1.94-12.81-.74-29-.87-42.5,1.63a452.16,452.16,0,0,0-49,12s-17,4-19,37c-1.58,26.11-2.69,102.61-3.09,115.46a11.26,11.26,0,0,0,3.94,8.91,258.42,258.42,0,0,0,161.65,61.63"/><circle class="cls-3" cx="314.83" cy="249.83" r="85.5"/><polygon class="cls-4" points="314.33 336.33 289.33 426.33 313.33 471.33 337.33 427.33 314.33 336.33"/><text class="cls-5" transform="translate(138.72 738.87)"><tspan class="cls-6">F</tspan><tspan x="52.9" y="0">AMI</tspan><tspan class="cls-7" x="258.4" y="0">L</tspan><tspan x="306.82" y="0">Y</tspan></text></g></g></svg>